<svg width="1096.000000pt" height="151.000000pt" viewBox="0 0 1096.000000 151.000000" xmlns="http://www.w3.org/2000/svg">
  <g transform="translate(0.000000,151.000000) scale(0.100000,-0.100000)" fill="#FFFFFF" stroke="none">
    <path d="M362 1153 c-55 -93 -129 -219 -166 -281 l-66 -114 56 -100 56 -100 8
9 c5 4 80 130 168 278 l159 270 122 -3 123 -4 -3 9 c-2 4 -29 52 -59 105 l-55
98 -122 0 -122 0 -99 -167z" />
    <path d="M880 1315 c0 -4 70 -129 157 -278 86 -150 156 -277 156 -282 0 -6
-25 -54 -56 -108 -31 -54 -57 -101 -57 -103 0 -3 52 -3 116 -2 l117 3 60 103
60 103 -16 32 c-9 18 -81 145 -161 282 l-144 250 -116 3 c-64 1 -116 0 -116
-3z" />
    <path d="M3927 1099 c-57 -13 -128 -53 -171 -95 -21 -21 -50 -63 -65 -93 l-25
-56 0 -80 0 -80 22 -50 c13 -27 44 -71 69 -97 l46 -47 61 -28 61 -28 95 1 95
0 56 22 c72 29 137 85 174 153 l30 54 0 100 0 100 -23 42 c-32 60 -78 110
-129 140 -80 46 -203 64 -296 42z m171 -189 l33 -20 19 -43 c11 -23 20 -58 20
-77 0 -19 -9 -54 -20 -77 l-19 -43 -33 -20 -33 -20 -41 0 -41 0 -34 23 c-19
12 -42 38 -51 57 l-18 35 0 45 0 45 18 35 c9 19 32 45 51 57 l34 23 41 0 41 0
33 -20z" />
    <path d="M8950 1095 c-67 -19 -140 -65 -175 -111 -14 -19 -36 -56 -48 -82
l-21 -47 0 -80 0 -80 26 -56 c31 -69 88 -128 151 -158 26 -13 76 -28 112 -34
l65 -11 71 12 c38 7 87 21 108 32 43 21 101 68 101 80 0 4 -30 33 -66 65 l-65
58 -27 -26 c-33 -32 -72 -47 -120 -47 l-37 0 -33 20 c-18 11 -41 34 -52 52
l-20 33 0 55 0 55 20 33 c11 18 34 41 52 52 l33 20 37 0 c48 0 87 -15 120 -47
l27 -26 48 41 c26 22 57 49 67 61 l19 21 -32 34 c-18 19 -60 46 -93 61 l-60
27 -77 4 -76 4 -55 -15z" />
    <path d="M7334 1091 c-2 -2 -4 -98 -4 -212 l0 -208 21 -55 20 -55 49 -44 49
-44 48 -14 48 -14 85 1 85 0 52 23 53 23 35 39 c19 21 42 56 52 76 l17 38 4
223 4 222 -34 1 c-18 1 -64 1 -103 2 l-70 0 -5 -209 -5 -209 -13 -22 c-16 -30
-43 -43 -84 -43 -45 0 -75 23 -88 68 l-10 37 0 188 0 187 -12 2 c-29 3 -190 3
-194 -1z" />
    <path d="M1640 770 l0 -320 250 0 250 0 0 85 0 85 -145 0 -145 0 0 235 0 235
-105 0 -105 0 0 -320z" />
    <path d="M2200 770 l0 -320 265 0 265 0 0 80 0 80 -160 0 -160 0 0 45 0 45
135 0 135 0 0 80 0 80 -135 0 -135 0 0 35 0 35 155 0 155 0 0 80 0 80 -260 0
-260 0 0 -320z" />
    <path d="M2820 770 l0 -320 95 0 94 0 3 137 3 138 69 -107 68 -108 48 0 48 0
62 105 c34 58 66 108 71 111 l9 5 0 -140 0 -141 95 0 95 0 0 320 0 320 -87 0
-88 0 -99 -170 c-55 -94 -102 -170 -105 -170 -4 1 -51 76 -106 168 l-100 167
-88 3 -87 3 0 -321z" />
    <path d="M4460 770 l0 -320 105 0 104 0 3 143 3 142 120 -142 120 -142 88 0
87 -1 0 320 0 320 -105 0 -104 0 -3 -144 -3 -144 -119 144 -119 144 -89 0 -88
0 0 -320z" />
    <path d="M5200 770 l0 -320 185 0 184 0 53 11 c77 17 140 52 186 104 22 25 48
67 56 92 l16 47 0 66 0 66 -16 47 c-8 25 -34 67 -56 92 -46 52 -109 87 -186
104 l-53 11 -184 0 -185 0 0 -320z m389 132 c19 -9 44 -30 55 -45 l21 -28 0
-59 0 -59 -21 -28 c-11 -15 -36 -36 -55 -45 l-34 -18 -72 0 -73 0 0 150 0 150
73 0 72 0 34 -18z" />
    <path d="M5960 770 l0 -320 265 0 265 0 0 80 0 80 -160 0 -160 0 0 45 0 45
135 0 135 0 0 80 0 80 -135 0 -135 0 0 35 0 35 155 0 155 0 0 80 0 80 -260 0
-260 0 0 -320z" />
    <path d="M6580 770 l0 -320 180 0 179 0 53 11 c77 17 140 52 186 104 22 25 48
67 56 92 l16 47 0 66 0 66 -16 47 c-8 25 -34 67 -56 92 -46 52 -109 87 -186
104 l-53 11 -179 0 -180 0 0 -320z m379 132 c19 -9 44 -30 55 -45 l21 -28 0
-59 0 -59 -21 -28 c-11 -15 -36 -36 -55 -45 l-34 -18 -67 0 -68 0 0 150 0 150
68 0 67 0 34 -18z" />
    <path d="M8050 771 l0 -321 105 0 105 0 0 79 0 78 100 5 100 5 58 29 57 29 31
47 c35 52 47 108 38 169 -4 23 -21 62 -38 87 l-31 47 -59 30 -60 30 -203 3
-203 4 0 -321z m354 138 l26 -20 0 -39 0 -39 -26 -20 -27 -21 -58 0 -59 0 0
80 0 80 59 0 58 0 27 -21z" />
    <path d="M9690 770 l0 -320 105 0 105 0 0 105 0 105 135 0 135 0 0 80 0 80
-135 0 -135 0 0 55 0 55 155 0 155 0 0 80 0 80 -260 0 -260 0 0 -320z" />
    <path d="M10270 771 l0 -321 110 0 110 0 0 80 0 80 30 0 30 0 52 -80 53 -80
113 0 113 0 -10 18 c-5 9 -34 53 -64 96 l-55 80 26 20 c37 28 50 45 72 91 l20
40 0 55 0 55 -19 40 c-24 51 -63 88 -126 117 l-50 23 -202 3 -203 4 0 -321z
m360 141 l22 -18 2 -43 1 -43 -24 -19 -23 -19 -59 0 -59 0 0 80 0 80 59 0 59
0 22 -18z" />
    <path d="M795 987 c-47 -26 -85 -80 -84 -116 0 -14 3 -20 6 -13 2 6 9 10 14 6
5 -3 8 0 7 7 -2 6 15 25 37 40 l40 29 65 13 64 13 -34 16 c-19 9 -44 18 -55
22 l-20 6 -40 -23z" />
    <path d="M638 971 c-25 -16 -48 -36 -51 -46 -19 -49 2 -133 42 -169 26 -23 37
-16 21 15 l-12 22 6 60 6 60 24 44 c14 23 21 43 17 43 -4 0 -28 -13 -53 -29z" />
    <path d="M841 876 l-23 -13 42 -6 43 -6 41 -28 c22 -16 55 -48 73 -72 l33 -43
0 35 c0 19 -3 49 -6 66 l-7 32 -42 24 -42 25 -44 0 c-24 -1 -55 -7 -68 -14z" />
    <path d="M520 742 l0 -64 28 -28 c16 -16 47 -33 68 -39 l40 -11 36 11 c21 5
40 14 43 19 l6 10 -26 0 c-55 0 -142 65 -178 135 l-16 30 -1 -63z" />
    <path d="M915 755 c4 -11 10 -47 12 -80 l5 -60 -20 -52 c-11 -29 -17 -53 -13
-53 10 0 73 48 83 62 13 21 9 97 -6 126 -8 15 -26 38 -42 52 l-27 25 8 -20z" />
    <path d="M9450 673 c-27 -10 -59 -46 -70 -78 l-11 -32 13 -39 13 -38 34 -23
c19 -13 47 -23 63 -23 37 0 82 23 102 52 l16 22 0 46 0 46 -16 22 c-29 42 -96
63 -144 45z" />
    <path d="M855 648 c-4 -10 -11 -15 -16 -12 -5 3 -9 2 -8 -3 4 -22 -5 -32 -53
-58 l-51 -28 -56 -6 -56 -6 47 -23 c26 -12 61 -22 78 -22 l30 0 40 36 40 36
10 40 c6 22 9 45 7 51 l-5 12 -7 -17z" />
    <path d="M396 495 l-57 -95 12 -22 c6 -13 34 -62 61 -110 l50 -88 327 0 326 0
57 98 56 97 -226 6 c-125 4 -272 7 -327 8 l-100 1 -55 100 c-30 55 -58 100
-61 100 -4 0 -32 -43 -63 -95z" />
  </g>
</svg>