<?xml version="1.0" encoding="UTF-8"?>
<svg id="Calque_2" xmlns="http://www.w3.org/2000/svg" viewBox="0 0 93.25 93.24">
  <defs>
    <style>
      .cls-1 {
        fill: #9aa3ea;
      }

      .cls-2 {
        fill: #46487f;
      }

      .cls-3 {
        fill: #a37f84;
      }

      .cls-4 {
        fill: #ede2ef;
      }

      .cls-5 {
        fill: #f4a36f;
      }
    </style>
  </defs>
  <g id="Layer_1">
    <g>
      <path class="cls-4" d="M93.25,46.62c0,6.26-1.23,12.23-3.47,17.68-.2.5-.42.99-.65,1.48-5.62,12.47-16.57,22.03-29.96,25.75-.95.27-1.92.51-2.9.71-.33.07-.65.13-.98.19-2.81.54-5.71.81-8.66.81-1.65,0-3.28-.08-4.89-.25-1.05-.11-2.09-.26-3.12-.44-1.36-.24-2.69-.53-4.01-.88-1.78-.47-3.53-1.05-5.22-1.73-3.91-1.55-7.56-3.62-10.87-6.12-5.27-3.98-9.66-9.06-12.84-14.89-3.62-6.63-5.68-14.23-5.68-22.31C0,20.87,20.88,0,46.63,0s46.62,20.87,46.62,46.62Z"/>
      <path class="cls-3" d="M59.17,91.53c-3.99,1.12-8.2,1.71-12.54,1.71-2.73,0-5.41-.23-8.01-.69-1.36-.24-2.69-.53-4.01-.88-1.78-.47-3.53-1.05-5.22-1.73l3.31-33.33,18.05-4.26,7.18,2.13,1.24,37.05Z"/>
      <path d="M53.05,46.53c-4.73-.88-18.27-22.66-18.27-22.66,0,0-6.74-8.31-4.92-9.41,1.82-1.09,3.55.58,3.55.58,0,0,6.03-.95,11.55-1.17.7-.03,1.39-.05,2.06-.05,2.03,0,3.87.12,5.14.48,5.01,1.42,8.37,9.63,8.37,9.63,0,0,2.51-.23,3.57,3.19,1.07,3.43-6.33,20.29-11.05,19.41Z"/>
      <path class="cls-5" d="M52.99,43.81l.23,11.47s-2,3.34-8.7,4.02c-4.99.51-6.77-.59-6.77-.59l.58-5.82.57-5.68,12.06-2.91,2.02-.49Z"/>
      <path d="M50.97,44.3c-.02.31-.13.69-.31,1.11-2.45,5.78-9.44,7.16-12.32,7.48l.57-5.68,12.06-2.91Z"/>
      <path class="cls-5" d="M35.82,21.12s-5.73,14.5-3.19,22.45c2.53,7.94,9.8,6.42,14.12,4.71,4.32-1.71,6.25-4.46,6.25-4.46,0,0,4.13,1.24,6.73-2.66,2.6-3.9.76-8.2-1.61-9.12s-5.08.87-5.08.87l2.03-4.23s-9.9-20.76-19.24-7.56Z"/>
      <path d="M35.82,21.12s4.46-1.8,6.37-.22c1.9,1.57,4.15,14.87,10.85,12.01,6.69-2.86,3.23-11.38,3.23-11.38,0,0-16.84-14.42-20.45-.41Z"/>
      <path class="cls-2" d="M38.39,52.36s-1.48,19.61-3.78,39.31c-12.47-3.31-22.88-11.66-28.93-22.74,3.7-3.88,9.62-10.37,14.73-12.44,8.92-3.62,17.98-4.13,17.98-4.13Z"/>
      <path class="cls-1" d="M42.63,59.81c-2.44,0-4.23-.38-4.4-.42-.27-.06-.44-.33-.38-.6.06-.27.32-.44.6-.38.1.02,10.11,2.14,15.35-4,.18-.21.5-.24.71-.06.21.18.24.5.06.71-3.35,3.93-8.34,4.75-11.92,4.75Z"/>
      <path class="cls-2" d="M89.13,65.78c-5.62,12.47-16.57,22.03-29.96,25.75-.95.27-1.92.51-2.9.71-.33.07-.65.13-.98.19-1.35-15.25-2.13-41.91-2.13-41.91,0,0,20.77.31,35.97,15.26Z"/>
      <path d="M53.55,39.32c-.12,0-.25-.05-.35-.14-.2-.19-.2-.51-.01-.71l3.61-3.74c.19-.2.51-.2.71-.01.2.19.2.51.01.71l-3.61,3.74c-.1.1-.23.15-.36.15Z"/>
      <path d="M58.44,38.4s-.08,0-.13-.02l-3.12-.82c-.27-.07-.43-.34-.36-.61.07-.27.34-.43.61-.36l3.12.82c.27.07.43.34.36.61-.06.23-.26.37-.48.37Z"/>
      <path d="M34.87,27.64c-.11,0-.21-.03-.3-.1-.22-.17-.26-.47-.1-.69.04-.05.98-1.27,3.35-.94.27.04.46.29.42.57-.04.27-.3.45-.57.42-1.75-.25-2.39.52-2.41.55-.1.12-.25.19-.4.19Z"/>
      <path d="M45.68,27.78c-.11,0-.23-.04-.32-.12-1.25-1.04-2.68-.68-2.74-.66-.26.07-.54-.09-.61-.35s.08-.54.35-.61c.08-.02,1.98-.53,3.64.86.21.18.24.49.06.7-.1.12-.24.18-.38.18Z"/>
      <path d="M35.35,33.36c-.32-.02-.52-.27-.5-.54l.22-2.67c.02-.28.27-.48.54-.46.28.02.48.26.46.54l-.22,2.67c-.02.26-.24.46-.5.46Z"/>
      <path d="M43.25,33.69c-.32-.02-.52-.27-.5-.54l.22-2.67c.02-.28.27-.47.54-.46.28.02.48.26.46.54l-.22,2.67c-.02.26-.24.46-.5.46Z"/>
      <path d="M37.27,39.73c-.19,0-.37-.11-.46-.3-1.68-3.75.84-6.78.95-6.9.18-.21.49-.24.7-.06.21.18.24.49.06.7-.09.11-2.21,2.68-.8,5.85.11.25,0,.55-.25.66-.07.03-.14.04-.2.04Z"/>
      <path d="M40.39,42.13c-.28,0-.5-.22-.5-.5s.22-.5.5-.5c.07,0,1.73-.03,2.33-1.46.11-.25.4-.37.65-.27.25.11.37.4.27.65-.86,2.05-3.15,2.07-3.25,2.07Z"/>
    </g>
  </g>
</svg>