<svg width="1050" height="209" viewBox="0 0 1050 209" fill="none" xmlns="http://www.w3.org/2000/svg">
<path d="M96.7296 107.866C88.8554 110.123 80.9813 112.379 73.1081 114.636C72.1397 139.341 71.1704 164.045 70.2021 188.749C85.2982 195.499 100.395 202.25 115.492 209C120.824 188.151 126.156 167.302 131.488 146.453C125.752 143.971 120.014 141.489 114.278 139.007C111.803 144.423 109.328 149.839 106.854 155.254C103.48 139.457 100.105 123.662 96.7306 107.865L96.7296 107.866Z" fill="#569DFF"/>
<path d="M90.0937 98.3787C85.521 91.5645 80.9482 84.7502 76.3755 77.936C52.652 84.6461 28.9295 91.3562 5.20603 98.0654C3.47037 114.553 1.73566 131.04 0 147.528C21.4159 146.172 42.8317 144.817 64.2476 143.46C64.8281 137.22 65.4094 130.981 65.9899 124.741C60.0902 124.054 54.1904 123.367 48.2907 122.679C62.2251 114.578 76.1594 106.48 90.0937 98.3787Z" fill="#569DFF"/>
<path d="M97.0392 89.1173C102.087 82.6495 107.135 76.1818 112.183 69.7131C98.4898 49.1558 84.7971 28.5985 71.1034 8.04021C54.9342 11.4795 38.7658 14.9188 22.5966 18.3591C30.5 38.3702 38.4034 58.3812 46.3068 78.3913C52.4029 77.0177 58.498 75.6431 64.594 74.2695C63.4227 68.4293 62.2505 62.5883 61.0793 56.7482C73.0656 67.5376 85.0519 78.3279 97.0392 89.1173Z" fill="#569DFF"/>
<path d="M107.967 92.8804C115.66 95.6968 123.352 98.5141 131.045 101.33C146.306 81.9149 161.566 62.5002 176.827 43.0847C168.569 28.7234 160.311 14.3612 152.054 0C135.522 13.7232 118.991 27.4463 102.459 41.1695C105.646 46.5599 108.833 51.9504 112.019 57.3408C117.195 54.4184 122.371 51.496 127.547 48.5735C121.02 63.3428 114.494 78.1111 107.967 92.8804Z" fill="#569DFF"/>
<path d="M107.776 104.469C107.482 112.677 107.189 120.886 106.895 129.095C130.019 137.653 153.145 146.211 176.269 154.77C187.334 142.455 198.4 130.139 209.465 117.824C191.345 106.294 173.225 94.7652 155.105 83.2355C150.979 87.9415 146.852 92.6466 142.726 97.3525C147.097 101.387 151.467 105.421 155.837 109.456C139.817 107.794 123.797 106.132 107.777 104.47L107.776 104.469Z" fill="#569DFF"/>
<path d="M347.214 159.827C338.808 159.827 331.19 159.041 324.36 157.469C317.531 155.896 311.62 153.538 306.629 150.393C301.638 147.117 297.698 142.99 294.808 138.011C291.919 133.032 290.211 127.266 289.686 120.715L317.465 111.477C317.859 116.981 319.435 121.567 322.193 125.235C324.951 128.904 328.629 131.656 333.226 133.49C337.954 135.194 343.208 136.045 348.987 136.045C354.503 136.045 359.1 135.39 362.778 134.08C366.587 132.639 369.411 130.87 371.25 128.773C373.22 126.546 374.205 124.187 374.205 121.698C374.205 118.815 372.957 116.456 370.462 114.622C367.966 112.657 364.551 111.019 360.217 109.708C355.883 108.267 350.826 106.891 345.047 105.581C338.48 104.009 332.044 102.305 325.739 100.471C319.435 98.6364 313.722 96.2779 308.599 93.3953C303.477 90.3816 299.405 86.5817 296.384 81.9957C293.495 77.2786 292.05 71.3823 292.05 64.3067C292.05 56.3139 294.086 49.3694 298.158 43.4731C302.229 37.5768 308.205 32.9907 316.086 29.715C323.966 26.3082 333.686 24.6049 345.244 24.6049C356.671 24.6049 366.39 26.2427 374.402 29.5184C382.414 32.7942 388.587 37.3802 392.921 43.2765C397.255 49.0418 399.62 55.7898 400.014 63.5206L371.644 71.5789C371.644 67.779 370.987 64.4378 369.673 61.5551C368.491 58.6725 366.784 56.314 364.551 54.4795C362.318 52.5141 359.56 51.0728 356.277 50.1556C352.993 49.1073 349.25 48.5832 345.047 48.5832C340.056 48.5832 335.787 49.1729 332.241 50.3521C328.826 51.5314 326.265 53.1037 324.557 55.0692C322.85 56.9036 321.996 59.0656 321.996 61.5551C321.996 64.6998 323.31 67.3204 325.936 69.4169C328.695 71.3823 332.372 73.0857 336.969 74.527C341.698 75.8373 346.886 77.1476 352.533 78.4579C358.181 79.6372 364.026 81.144 370.067 82.9784C376.109 84.6818 381.757 86.9748 387.011 89.8575C392.264 92.7401 396.467 96.671 399.62 101.65C402.903 106.498 404.545 112.657 404.545 120.125C404.545 128.118 402.378 135.128 398.043 141.155C393.84 147.052 387.47 151.638 378.933 154.914C370.396 158.189 359.823 159.827 347.214 159.827Z" fill="#FFFFFF"/>
<path d="M464.477 159.631C452.262 159.631 443.265 156.42 437.486 150C431.707 143.448 428.818 133.032 428.818 118.749V78.0648H414.042L414.633 53.4968H425.271C429.474 53.3658 432.626 52.7107 434.728 51.5314C436.961 50.3521 438.34 48.1246 438.865 44.8489L441.426 30.3046H459.355V53.3003H484.375V79.0475H459.355V117.374C459.355 121.829 460.405 125.104 462.507 127.201C464.74 129.297 468.089 130.346 472.555 130.346C475.05 130.346 477.414 130.083 479.647 129.559C481.88 129.035 483.719 128.315 485.163 127.397V156.682C480.96 157.993 477.086 158.779 473.54 159.041C470.125 159.434 467.104 159.631 464.477 159.631Z" fill="#FFFFFF"/>
<path d="M528.359 159.827C522.58 159.827 517.457 158.713 512.992 156.486C508.526 154.127 505.045 150.786 502.55 146.462C500.054 142.007 498.807 136.635 498.807 130.346C498.807 124.449 499.923 119.601 502.156 115.801C504.52 111.87 507.869 108.791 512.204 106.564C516.669 104.205 521.989 102.305 528.162 100.864C534.335 99.2916 541.362 97.9158 549.242 96.7365C553.051 96.0814 556.203 95.4917 558.699 94.9676C561.326 94.3125 563.296 93.3297 564.609 92.0194C565.923 90.7092 566.579 88.8092 566.579 86.3197C566.579 83.0439 565.397 80.2268 563.033 77.8683C560.669 75.5098 556.86 74.3305 551.606 74.3305C547.929 74.3305 544.579 74.9856 541.559 76.2959C538.669 77.6062 536.174 79.5061 534.072 81.9957C531.971 84.4853 530.394 87.4989 529.344 91.0367L501.368 82.7819C503.075 77.2786 505.439 72.4961 508.46 68.4342C511.613 64.3723 515.356 61.031 519.69 58.4104C524.024 55.6588 528.95 53.6934 534.466 52.5141C540.114 51.2038 546.09 50.5487 552.394 50.5487C562.902 50.5487 571.439 52.252 578.006 55.6588C584.705 58.9345 589.63 64.1102 592.782 71.1858C596.066 78.1303 597.708 87.1059 597.708 98.1123V114.032C597.708 118.749 597.773 123.532 597.905 128.38C598.167 133.097 598.43 137.88 598.693 142.728C599.087 147.445 599.546 152.227 600.072 157.076H572.096C571.57 154.062 571.045 150.459 570.52 146.266C569.994 141.942 569.6 137.552 569.338 133.097H565.594C563.755 138.076 561.063 142.662 557.517 146.855C554.102 150.917 549.899 154.127 544.908 156.486C540.048 158.713 534.532 159.827 528.359 159.827ZM542.741 137.421C545.105 137.421 547.469 137.028 549.833 136.242C552.329 135.325 554.693 134.145 556.926 132.704C559.159 131.132 561.194 129.232 563.033 127.004C564.872 124.777 566.251 122.353 567.17 119.732L566.776 104.205L571.111 105.188C568.615 106.76 565.857 108.005 562.836 108.922C559.815 109.839 556.729 110.56 553.576 111.084C550.556 111.608 547.535 112.198 544.514 112.853C541.624 113.377 538.997 114.098 536.633 115.015C534.4 115.932 532.627 117.177 531.314 118.749C530 120.322 529.344 122.484 529.344 125.235C529.344 128.904 530.592 131.852 533.087 134.08C535.583 136.307 538.8 137.421 542.741 137.421Z" fill="#FFFFFF"/>
<path d="M663.062 193.436C651.504 193.436 641.982 192.519 634.495 190.685C627.14 188.981 621.755 186.361 618.34 182.823C614.925 179.416 613.218 175.223 613.218 170.244C613.218 164.217 615.582 159.303 620.31 155.503C625.17 151.703 632.262 149.541 641.588 149.017V144.89C634.364 144.89 628.782 144.169 624.842 142.728C621.033 141.286 619.128 138.6 619.128 134.669C619.128 131.001 621.033 127.659 624.842 124.646C628.651 121.632 634.955 119.274 643.755 117.57V113.443C635.743 112.788 629.373 110.167 624.644 105.581C619.916 100.864 617.552 94.7056 617.552 87.1059C617.552 80.6854 619.391 74.8546 623.068 69.6134C626.746 64.2412 632.262 59.9828 639.618 56.8381C646.973 53.5623 656.167 51.9245 667.199 51.9245H721.181V75.7063L688.28 71.3823V76.0994C696.817 77.2786 702.925 79.2441 706.602 81.9957C710.28 84.7473 712.119 88.6127 712.119 93.5918C712.119 98.833 710.28 103.485 706.602 107.546C703.056 111.608 697.999 114.819 691.432 117.177C684.865 119.405 677.05 120.518 667.987 120.518C666.411 120.518 664.638 120.453 662.668 120.322C660.829 120.191 657.349 119.863 652.226 119.339C650.125 121.173 648.483 122.746 647.301 124.056C646.119 125.235 645.528 126.349 645.528 127.397C645.528 128.184 645.856 128.839 646.513 129.363C647.17 129.887 648.089 130.28 649.271 130.542C650.585 130.673 651.964 130.739 653.409 130.739H685.128C687.755 130.739 691.169 130.935 695.372 131.328C699.707 131.59 703.975 132.573 708.178 134.276C712.513 135.98 716.124 138.731 719.014 142.531C722.035 146.331 723.545 151.769 723.545 158.844C723.545 166.575 721.378 172.996 717.044 178.106C712.71 183.347 706.077 187.212 697.146 189.702C688.214 192.191 676.853 193.436 663.062 193.436ZM667.199 168.279C674.817 168.279 680.728 167.885 684.931 167.099C689.134 166.313 692.023 165.068 693.599 163.365C695.307 161.662 696.16 159.565 696.16 157.076C696.16 154.717 695.701 152.883 694.781 151.572C693.862 150.131 692.68 149.148 691.235 148.624C689.79 148.1 688.28 147.772 686.704 147.641C685.259 147.51 684.011 147.445 682.961 147.445H657.546C652.686 147.445 649.074 148.624 646.71 150.983C644.477 153.21 643.361 155.831 643.361 158.844C643.361 161.334 644.149 163.234 645.725 164.544C647.301 165.986 649.797 166.968 653.211 167.492C656.758 168.016 661.42 168.279 667.199 168.279ZM665.82 104.795C671.468 104.795 675.671 103.288 678.429 100.274C681.319 97.2606 682.764 93.4608 682.764 88.8747C682.764 83.8956 681.319 79.8337 678.429 76.689C675.54 73.4133 671.402 71.7754 666.017 71.7754C660.632 71.7754 656.429 73.4133 653.409 76.689C650.388 79.8337 648.877 83.8956 648.877 88.8747C648.877 91.8884 649.534 94.64 650.847 97.1296C652.161 99.4881 654.065 101.388 656.561 102.829C659.056 104.14 662.143 104.795 665.82 104.795Z" fill="#FFFFFF"/>
<path d="M787.91 159.827C779.242 159.827 771.492 158.713 764.663 156.486C757.833 154.127 751.988 150.721 747.128 146.266C742.4 141.811 738.788 136.307 736.293 129.756C733.797 123.204 732.549 115.67 732.549 107.153C732.549 98.8985 733.732 91.2988 736.096 84.3542C738.591 77.4097 742.072 71.4478 746.537 66.4687C751.134 61.3586 756.716 57.4277 763.284 54.6761C769.982 51.9245 777.469 50.5487 785.743 50.5487C794.149 50.5487 801.504 51.9245 807.809 54.6761C814.245 57.2967 819.498 61.2276 823.57 66.4687C827.773 71.7099 830.859 78.1303 832.829 85.73C834.8 93.1987 835.456 101.781 834.8 111.477L753.433 112.067V95.5572L816.674 94.9676L805.445 102.633C806.364 96.0814 805.97 90.7747 804.262 86.7128C802.555 82.5198 800.06 79.5061 796.776 77.6717C793.492 75.7063 789.946 74.7236 786.137 74.7236C781.54 74.7236 777.469 75.9684 773.922 78.4579C770.507 80.9475 767.815 84.5508 765.845 89.2678C763.875 93.9849 762.89 99.7502 762.89 106.564C762.89 117.308 765.188 125.104 769.785 129.952C774.513 134.801 780.489 137.225 787.713 137.225C791.26 137.225 794.215 136.766 796.579 135.849C798.943 134.801 800.848 133.556 802.292 132.114C803.868 130.542 805.051 128.839 805.839 127.004C806.758 125.17 807.48 123.401 808.006 121.698L835.588 127.594C834.537 132.442 832.829 136.831 830.465 140.762C828.232 144.693 825.146 148.1 821.206 150.983C817.397 153.865 812.734 156.027 807.218 157.469C801.833 159.041 795.397 159.827 787.91 159.827Z" fill="#FFFFFF"/>
<path d="M894.084 193.24C888.83 193.24 883.445 192.781 877.929 191.864C872.412 190.947 867.159 189.571 862.168 187.736C857.308 186.033 853.105 183.74 849.559 180.857L857.242 152.752C861.839 157.076 867.356 160.286 873.791 162.382C880.358 164.479 886.663 165.527 892.705 165.527C899.666 165.527 905.379 164.151 909.845 161.399C914.442 158.779 917.922 154.717 920.287 149.214C922.782 143.579 924.227 136.635 924.621 128.38L925.606 111.281H920.878C919.696 119.798 917.594 126.742 914.573 132.114C911.684 137.487 907.94 141.483 903.343 144.104C898.878 146.593 893.558 147.838 887.385 147.838C879.767 147.838 873.397 145.938 868.275 142.138C863.153 138.338 859.278 132.639 856.651 125.039C854.156 117.308 852.908 107.743 852.908 96.3434V53.3003H884.824V88.4817C884.824 100.536 886.006 109.184 888.37 114.425C890.866 119.536 894.74 122.091 899.994 122.091C902.752 122.091 905.248 121.305 907.481 119.732C909.713 118.16 911.618 115.932 913.194 113.05C914.77 110.167 915.952 106.695 916.74 102.633C917.66 98.4399 918.119 93.7883 918.119 88.6782V53.3003H949.839V129.559C949.839 137.814 949.051 145.348 947.474 152.162C946.03 158.975 943.797 164.937 940.776 170.047C937.886 175.158 934.209 179.416 929.743 182.823C925.278 186.361 920.09 188.981 914.179 190.685C908.269 192.388 901.57 193.24 894.084 193.24Z" fill="#FFFFFF"/>
<path d="M993.851 98.1123L970.997 81.6026L992.078 62.5378L991.684 60.769L963.314 57.8208L971.392 30.1081L996.609 44.8489L997.791 43.8662L991.881 15.5638H1021.24L1015.33 43.8662L1016.7 44.8489L1041.13 30.1081L1050 58.0173L1021.83 60.769L1021.43 62.5378L1042.32 81.6026L1019.27 98.1123L1007.45 71.972H1005.67L993.851 98.1123Z" fill="#569DFF"/>
</svg>

