<?xml version="1.0" encoding="UTF-8"?>
<svg id="Workyt_2" data-name="Workyt 2" xmlns="http://www.w3.org/2000/svg" viewBox="0 0 1142.97 211.19"  width="926.000000pt" height="209.000000pt">
  <defs>
    <style>
      .cls-1, .cls-2, .cls-3 {
        stroke-width: 0px;
      }
      .cls-1 {
        fill: url(#logo-gradient);
      }

      .cls-2 {
        fill: none;
      }

      .cls-3 {
        fill: url(#logo-gradient-3);
      }
    </style>
    <linearGradient id="logo-gradient" x1="50%" y1="0%" x2="50%" y2="100%" > 
      <stop offset="0%" stop-color="#f5610c">
        <animate attributeName="stop-color" values="#e32c0c; #970ce3; #f5610c" dur="4s" repeatCount="indefinite"></animate>
      </stop>
      <stop offset="100%" stop-color="#e32c0c">
        <animate attributeName="stop-color" values="#f5610c; #7091F5; #e32c0c" dur="4s" repeatCount="indefinite"></animate>
      </stop>
    </linearGradient> 
    <linearGradient id="logo-gradient-3" x1="50%" y1="0%" x2="50%" y2="100%" > 
      <stop offset="0%" stop-color="#E3280C">
        <animate attributeName="stop-color" values="#f72585; #970ce3; #E3280C" dur="4s" repeatCount="indefinite"></animate>
      </stop>
      <stop offset="100%" stop-color="#e32c0c">
        <animate attributeName="stop-color" values="#E3280C; #7091F5; #e32c0c" dur="4s" repeatCount="indefinite"></animate>
      </stop>
    </linearGradient> 

  </defs>
  <g id="Workyt_1-2" data-name="Workyt 1">
    <g>
      <path class="cls-1" d="m390.5,51.59l-32.2,109.8h-33.4l-20.6-60.4-20.4,60.4h-33.6l-32.2-109.8,20.86-43.84,29.34,100.64,19.2-56.8h33.6l19.2,56.8,29.66-100.64,20.54,43.84Z"/>
      <path class="cls-1" d="m508.5,121.39c-.27,5.87-1.53,11.37-3.79,16.5-2.26,5.13-5.49,9.6-9.68,13.4-4.19,3.8-9.25,6.8-15.17,9-5.92,2.2-12.74,3.3-20.46,3.3h-12.18c-7.99,0-15.04-1.17-21.16-3.5-6.12-2.33-11.28-5.53-15.47-9.6-4.19-4.07-7.35-8.8-9.48-14.2-2.13-5.4-3.19-11.17-3.19-17.3v-28.6h.2c.27-5.87,1.53-11.33,3.79-16.4,2.26-5.07,5.46-9.5,9.58-13.3s9.18-6.8,15.17-9,12.84-3.3,20.57-3.3h12.18c7.99,0,15.01,1.17,21.06,3.5,6.06,2.33,11.18,5.5,15.37,9.5,4.19,4,7.35,8.7,9.48,14.1,2.13,5.4,3.19,11.17,3.19,17.3l.2,28.6h-.2Zm-49.07,12.8c2.01,0,3.95-.4,5.83-1.2,1.88-.8,3.52-1.9,4.92-3.3,1.41-1.4,2.54-3.03,3.42-4.9.87-1.87,1.31-3.8,1.31-5.8v-26.2c0-2-.44-3.9-1.31-5.7-.87-1.8-2.01-3.4-3.42-4.8-1.41-1.4-3.05-2.5-4.92-3.3-1.88-.8-3.82-1.2-5.83-1.2h-12.26c-4.15,0-7.77,1.5-10.85,4.5-3.08,3-4.62,6.5-4.62,10.5v26.2c0,2,.43,3.93,1.31,5.8.87,1.87,2.01,3.5,3.42,4.9,1.41,1.4,3.05,2.5,4.92,3.3,1.88.8,3.82,1.2,5.83,1.2h12.26Z"/>
      <path class="cls-1" d="m572.5,50.49c3.33-1.4,7.13-2.1,11.4-2.1h10.8v29h-10.8c-6.4,0-11.37,1.61-14.9,4.81-3.53,3.21-5.3,8.22-5.3,15.03v64.15h-34V50.19h34v6c2.53-2.4,5.47-4.3,8.8-5.7Z"/>
      <path class="cls-1" d="m674.5,90.59l32.4,70.6h-34l-20-43.4-3.2,4v39.6h-34.2V7.39h34.2v71.6l23-28.8h34.2l-32.4,40.4Z"/>
      <path class="cls-1" d="m836.7,121.79v45.4c0,6-1.07,11.67-3.2,17-2.13,5.33-5.23,10-9.3,14-4.07,4-9.13,7.17-15.2,9.5-6.07,2.33-13.03,3.5-20.9,3.5h-12.2c-7.87,0-14.83-1.17-20.9-3.5-6.07-2.33-11.13-5.5-15.2-9.5-4.07-4-7.17-8.67-9.3-14-2.13-5.33-3.2-11-3.2-17h33.8c0,2,.4,3.9,1.19,5.7.79,1.8,1.89,3.4,3.28,4.8,1.39,1.4,2.98,2.5,4.78,3.3,1.79.8,3.68,1.2,5.67,1.2h12.14c1.99,0,3.88-.4,5.67-1.2,1.79-.8,3.38-1.9,4.78-3.3,1.39-1.4,2.49-3,3.28-4.8.79-1.8,1.19-3.7,1.19-5.7v-5.4c-4.93,1.07-9.93,1.6-15,1.6h-12.2c-7.87,0-14.83-1.13-20.9-3.4-6.07-2.27-11.13-5.4-15.2-9.4-4.07-4-7.17-8.67-9.3-14-2.13-5.33-3.2-11.07-3.2-17.2V51.59h33.6l.2,67.8c0,4,1.49,7.5,4.48,10.5,2.98,3,6.47,4.5,10.45,4.5h12.14c1.99,0,3.88-.4,5.67-1.2,1.79-.8,3.38-1.9,4.78-3.3,1.39-1.4,2.49-3,3.28-4.8.79-1.8,1.19-3.7,1.19-5.7V51.59h33.6v70.2Z"/>
      <path class="cls-1" d="m914.1,134.19c-2,0-3.94-.4-5.8-1.2-1.87-.8-3.5-1.9-4.9-3.3-1.4-1.4-2.54-3.03-3.4-4.9-.87-1.87-1.3-3.8-1.3-5.8v-28.2h22.6v-29.4h-22.6v-29.44c-.99-2.25-2.15-4.37-3.47-6.36h-30.33l-.03,16.24-.17,79.56c.26,5.87,1.53,11.37,3.8,16.5,2.26,5.13,5.5,9.6,9.7,13.4,4.2,3.8,9.3,6.8,15.3,9s12.86,3.3,20.6,3.3h19.4v-29l-19.4-.4Z"/>
      <path class="cls-2" d="m898.7,25.59v6.36c-.99-2.25-2.15-4.37-3.47-6.36h3.47Z"/>
      <path class="cls-1" d="m979.1,147.59c0,4.27-1.5,7.9-4.5,10.9s-6.63,4.5-10.9,4.5-7.9-1.5-10.9-4.5-4.5-6.63-4.5-10.9,1.5-7.9,4.5-10.9,6.63-4.5,10.9-4.5,7.9,1.5,10.9,4.5,4.5,6.63,4.5,10.9Z"/>
      <path class="cls-1" d="m1027.89,70.39h22.4v29.4h-22.4v61.6h-34V47.59h.2c.27-5.87,1.53-11.37,3.8-16.5,2.27-5.13,5.47-9.6,9.6-13.4,4.13-3.8,9.2-6.8,15.2-9s12.8-3.3,20.4-3.3l99.87-.4v29.4l-99.87.4c-2,0-3.93.43-5.8,1.3-1.87.87-3.5,2-4.9,3.4-1.4,1.4-2.5,3-3.3,4.8-.8,1.8-1.2,3.7-1.2,5.7v20.4Z"/>
      <path class="cls-1" d="m1111.97,103.94l.33,57.45h-34V57.75h34l-.33,20.1v26.1Z"/>
      <path class="cls-1" d="m468.83,105.69c0,4.27-1.5,7.9-4.5,10.9s-6.63,4.5-10.9,4.5-7.9-1.5-10.9-4.5-4.5-6.63-4.5-10.9,1.5-7.9,4.5-10.9,6.63-4.5,10.9-4.5,7.9,1.5,10.9,4.5,4.5,6.63,4.5,10.9Z"/>
    </g>
    <path class="cls-1" d="m1085.97,70.75l25.59.06v6c2.53-2.4,5.47-4.3,8.8-5.7,3.33-1.4,7.13-2.1,11.4-2.1h10.8v29h-10.8c-6.4,0-11.37,1.61-14.9,4.81-3.53,3.21-5.3,8.22-5.3,15.03l-25.59-47.1Z"/>
    <path class="cls-2" d="m898.97,51.75l-.27-.08v-19.72c.18.4.35.81.52,1.22,2.24,5.47-.51,12.33-.25,18.58Z"/>
    <path class="cls-1" d="m898.7,31.95v19.72l-33.55-9.55c-.09-.1-.18-.2-.28-.29-1.31-1.36-2.83-2.47-4.56-3.34-1.84-.92-3.75-1.38-5.72-1.38l-98.62-.43V5.35l98.62.43c7.5,0,14.22,1.17,20.14,3.51,5.92,2.35,10.93,5.54,15.01,9.59,2.07,2.05,3.9,4.29,5.49,6.71,1.32,1.99,2.48,4.11,3.47,6.36Z"/>
    <rect class="cls-1" x="727.97" y="5.75" width="29" height="31"/>
    <g>
      <path class="cls-2" d="m0,0h198.87v194.14H0V0Zm34.13,76.62c-.2.48-.47.94-.6,1.43-3.81,13.87-2.59,27.33,3.58,40.29,7.39,15.51,19.08,27.02,33.89,35.38,17.1,9.64,35.41,13.59,54.98,10.69,15.81-2.35,29.23-10.04,42.02-19.07.17-.12.19-.43.33-.76-.86-.11-1.63-.21-2.39-.31-13.12-3.74-24.18-10.71-33.14-21.02-7.09-8.16-12.08-17.51-15.98-27.51-2.31-5.91-6.02-10.78-11.2-14.54-4.77-3.47-10-6.07-15.37-8.42-3.54-1.55-3.59-1.53-2.7-5.42.78-3.43,1.23-6.92,1.23-10.4,0-13.09-3.76-25.14-10.68-36.21-.38-.61-.67-1.48-1.81-1.37-.33.65-.69,1.34-1.03,2.04-3.34,6.75-7.84,12.6-13.64,17.41-4.51,3.75-8.83,7.72-12.63,12.18-6.5,7.63-12.18,15.75-14.83,25.62Z"/>
      <path class="cls-3" d="m34.13,76.62c2.65-9.87,8.34-17.99,14.83-25.62,3.8-4.47,8.12-8.43,12.63-12.18,5.8-4.82,10.3-10.66,13.64-17.41.35-.7.7-1.39,1.03-2.04,1.14-.12,1.43.76,1.81,1.37,6.92,11.08,10.68,23.12,10.68,36.21,0,3.48-.45,6.97-1.23,10.4-.88,3.9-.83,3.87,2.7,5.42,5.37,2.35,10.6,4.95,15.37,8.42,5.17,3.77,8.89,8.63,11.2,14.54,3.91,10.01,8.9,19.36,15.98,27.51,8.96,10.31,20.02,17.28,33.14,21.02-1.31.02-2.63.18-3.92.03-10.07-1.23-20.11-2.65-30.07-4.63-19.99-3.98-39.31-9.85-57.31-19.64-8.15-4.44-15.8-9.62-22.35-16.17-7.46-7.45-13.39-16.02-16.49-26.27-.33-1.09-.55-1.6-1.66-.96Z"/>
      <path class="cls-1" d="m34.13,76.62c1.12-.64,1.34-.13,1.66.96,3.1,10.25,9.03,18.82,16.49,26.27,6.55,6.54,14.2,11.73,22.35,16.17,18,9.8,37.31,15.67,57.31,19.64,9.96,1.98,20,3.41,30.07,4.63,1.29.16,2.61,0,3.92-.03.76.1,1.53.2,2.39.31-.13.33-.16.64-.33.76-12.79,9.03-26.21,16.72-42.02,19.07-19.57,2.91-37.88-1.05-54.98-10.69-14.81-8.36-26.51-19.87-33.89-35.38-6.17-12.96-7.38-26.42-3.58-40.29.14-.49.4-.95.6-1.43Z"/>
    </g>
  </g>
</svg>