<?xml version="1.0" encoding="UTF-8" standalone="no"?>
<!DOCTYPE svg PUBLIC "-//W3C//DTD SVG 1.1//EN" "http://www.w3.org/Graphics/SVG/1.1/DTD/svg11.dtd">
<svg width="100%" height="100%" viewBox="0 0 1688 359" version="1.1" xmlns="http://www.w3.org/2000/svg" xmlns:xlink="http://www.w3.org/1999/xlink" xml:space="preserve" xmlns:serif="http://www.serif.com/" style="fill-rule:evenodd;clip-rule:evenodd;stroke-linejoin:round;stroke-miterlimit:2;">
    <g transform="matrix(1,0,0,1,-414.042591,-3838.804522)">
        <rect id="Plan-de-travail5" serif:id="Plan de travail5" x="0" y="2980" width="2560" height="1440" style="fill:none;"/>
        <g id="Plan-de-travail51" serif:id="Plan de travail5">
            <g id="workyt-best-logo.png" serif:id="workyt best logo.png">
            </g>
            <g transform="matrix(2.175642,0,0,2.175642,-3774.660687,1490.545831)">
                <path d="M2509.253,1079.341L2509.253,1058.722L2557.074,1058.638L2562.786,1044.846L2527.261,962.233L2554.427,962.233L2576.16,1015.59L2576.718,1015.59L2592.754,988.137L2619.224,988.137L2588.559,1045.821L2582.29,1060.728C2579.783,1066.672 2576.787,1071.246 2573.304,1074.45C2569.822,1077.655 2564.69,1079.257 2557.91,1079.257L2509.253,1079.341Z" style="fill:white;fill-rule:nonzero;"/>
            </g>
            <g id="workyt-best-logo.png1" serif:id="workyt best logo.png">
            </g>
            <g transform="matrix(2.175642,0,0,2.175642,-3553.536171,2008.190791)">
                <g transform="matrix(1,0,0,1,-111.802015,-73.055014)">
                    <path d="M2141.082,1045.821L2101.695,924.925L2127.886,924.925L2155.71,1013.5L2156.406,1013.5L2174.796,962.233L2198.479,962.233L2216.729,1013.5L2217.426,1013.5L2233.308,962.233L2259.22,962.233L2232.054,1045.821L2205.027,1045.821L2186.777,996.783L2186.219,996.783L2168.109,1045.821L2141.082,1045.821Z" style="fill:rgb(255,0,0);fill-rule:nonzero;"/>
                </g>
                <g transform="matrix(1,0,0,1,-111.802015,-73.055014)">
                    <path d="M2308.537,1047.493C2299.343,1047.493 2291.309,1045.705 2284.436,1042.129C2277.563,1038.554 2272.246,1033.492 2268.485,1026.944C2264.723,1020.396 2262.901,1011.574 2262.842,1003.888C2262.784,996.201 2266.039,988.429 2268.134,980.825C2270.84,971.007 2279.078,944.981 2279.078,944.981L2308.702,960.612L2338.841,944.935C2338.841,944.935 2344.666,974.399 2348.381,980.901C2352.096,987.402 2353.954,995.111 2353.954,1004.027C2353.954,1012.85 2352.096,1020.536 2348.381,1027.083C2344.666,1033.631 2339.419,1038.67 2332.639,1042.199C2325.859,1045.728 2317.825,1047.493 2308.537,1047.493ZM2308.537,1025.203C2314.946,1025.203 2319.845,1023.275 2323.235,1019.421C2326.625,1015.567 2328.32,1010.389 2328.32,1003.888C2328.32,997.386 2326.625,992.255 2323.235,988.493C2319.845,984.732 2314.946,982.851 2308.537,982.851C2302.036,982.851 2297.067,984.732 2293.631,988.493C2290.194,992.255 2288.476,997.386 2288.476,1003.888C2288.476,1010.389 2290.194,1015.567 2293.631,1019.421C2297.067,1023.275 2302.036,1025.203 2308.537,1025.203Z" style="fill:rgb(255,0,0);fill-rule:nonzero;"/>
                </g>
                <g transform="matrix(1,0,0,1,-111.802015,-73.055014)">
                    <path d="M2374.294,1045.821L2374.294,987.309L2361.756,987.309L2361.756,962.233L2387.389,962.233L2387.389,978.95L2393.241,978.95C2395.377,972.913 2398.86,968.432 2403.689,965.506C2408.519,962.581 2413.906,961.118 2419.85,961.118L2426.955,961.118L2426.955,983.408L2418.735,983.408C2411.862,983.408 2406.917,985.312 2403.898,989.12C2400.88,992.928 2399.37,997.897 2399.37,1004.027L2399.37,1045.821L2374.294,1045.821Z" style="fill:rgb(255,0,0);fill-rule:nonzero;"/>
                </g>
                <g transform="matrix(1,0,0,1,-46.602877,-119.06221)">
                    <path d="M2387.61,987.376L2374.294,987.309L2361.756,987.309L2361.756,962.233L2387.389,962.233L2387.61,987.376Z" style="fill:rgb(255,0,0);fill-rule:nonzero;"/>
                </g>
                <g transform="matrix(1,0,0,1,-111.802015,-73.055014)">
                    <path d="M2438.657,1045.821L2438.657,928.797L2464.291,928.797L2464.291,989.677L2464.848,989.677L2495.219,962.233L2525.589,962.233L2491.039,993.439L2528.097,1045.821L2498.284,1045.821L2472.928,1009.042L2464.291,1016.008L2464.291,1045.821L2438.657,1045.821Z" style="fill:rgb(255,0,0);fill-rule:nonzero;"/>
                </g>
                <g transform="matrix(1,0,0,1,-111.802015,-73.055014)">
                    <path d="M2509.253,1079.341L2509.253,1058.722L2557.074,1058.638L2562.786,1044.846L2527.261,962.233L2554.427,962.233L2576.16,1015.59L2576.718,1015.59L2592.754,988.137L2619.224,988.137L2588.559,1045.821L2582.29,1060.728C2579.783,1066.672 2576.787,1071.246 2573.304,1074.45C2569.822,1077.655 2564.69,1079.257 2557.91,1079.257L2509.253,1079.341Z" style="fill:rgb(255,0,0);fill-rule:nonzero;"/>
                </g>
                <g transform="matrix(1,0,0,1,-111.802015,-66.821784)">
                    <path d="M2663.158,1041.26C2656.657,1041.26 2651.619,1039.611 2648.043,1036.314C2644.467,1033.017 2642.679,1027.978 2642.679,1021.198L2642.116,974.389L2600.801,974.554L2600.801,954.493L2642.394,954.328L2642.218,908.235L2665.15,926.813L2665.173,954.383L2711.075,954.361L2711.154,974.141L2665.143,974.376L2665.167,1021.358L2688.374,1021.198L2688.374,1041.26L2663.158,1041.26Z" style="fill:rgb(255,0,0);fill-rule:nonzero;"/>
                </g>
            </g>
            <g id="workyt-best-logo.png2" serif:id="workyt best logo.png" transform="matrix(1,0,0,1,410.354895,3874.216062)">
                <path d="M9.262,111.406C31.62,50.127 67.989,49.684 88.149,6.324C90.229,1.849 91.97,5.303 97.345,14.587C105.191,28.139 115.646,60.479 112.743,80.534C111.516,89.01 112.132,89.016 110.337,97.465C108.592,105.68 112.902,104.143 126.347,110.807C179.388,137.099 157.045,158.468 200.672,206.34C206.09,212.284 219.366,223.595 226.406,227.658C244.718,238.225 256.176,240.884 257.542,241.333C257.269,241.503 256.876,240.939 256.603,241.109C256.413,241.226 256.473,242.664 254.5,242.331C246.626,241 237.534,241.792 196.46,233.73C136.132,221.889 107.453,206.45 102.603,204.28C97.141,201.837 56.412,191.563 33.932,167.266C6.415,137.524 9.262,111.406 9.262,111.406Z" style="fill:rgb(255,0,0);"/>
                <path d="M9.262,111.406C9.262,111.406 13.159,132.596 40.677,162.337C63.156,186.635 246.626,241 254.5,242.331C256.473,242.664 256.413,241.226 256.603,241.109C256.876,240.939 257.269,241.503 257.542,241.333C258.091,241.437 264.359,242.62 264.387,242.676C264.847,243.58 264.952,244.398 251.223,253.067C220.827,272.262 190.936,285.553 143.512,281.37C70.006,274.888 -16.367,202.142 7.841,115.589C7.937,115.248 7.947,115.279 9.262,111.406Z" style="fill:rgb(255,0,0);"/>
            </g>
        </g>
    </g>
</svg>
