<?xml version="1.0" encoding="UTF-8"?>
<svg xmlns="http://www.w3.org/2000/svg" viewBox="0 0 198.87 194.14">
  <defs>
    <style>.cls-1,.cls-2,.cls-3{stroke-width:0}.cls-1{fill:url(#logo-gradient)}.cls-2{fill:none}.cls-3{fill:url(#logo-gradient-3)}</style>
    <linearGradient id="logo-gradient" x1="50%" y1="0%" x2="50%" y2="100%">
      <stop offset="0%" stop-color="#f5610c"><animate attributeName="stop-color" values="#e32c0c;#970ce3;#f5610c" dur="4s" repeatCount="indefinite"/></stop>
      <stop offset="100%" stop-color="#e32c0c"><animate attributeName="stop-color" values="#f5610c;#7091F5;#e32c0c" dur="4s" repeatCount="indefinite"/></stop>
    </linearGradient>
    <linearGradient id="logo-gradient-3" x1="50%" y1="0%" x2="50%" y2="100%">
      <stop offset="0%" stop-color="#E3280C"><animate attributeName="stop-color" values="#f72585;#970ce3;#E3280C" dur="4s" repeatCount="indefinite"/></stop>
      <stop offset="100%" stop-color="#e32c0c"><animate attributeName="stop-color" values="#E3280C;#7091F5;#e32c0c" dur="4s" repeatCount="indefinite"/></stop>
    </linearGradient>
  </defs>
  <path class="cls-2" d="m0,0h198.87v194.14H0V0Zm34.13,76.62c-.2.48-.47.94-.6,1.43-3.81,13.87-2.59,27.33,3.58,40.29,7.39,15.51,19.08,27.02,33.89,35.38,17.1,9.64,35.41,13.59,54.98,10.69,15.81-2.35,29.23-10.04,42.02-19.07.17-.12.19-.43.33-.76-.86-.11-1.63-.21-2.39-.31-13.12-3.74-24.18-10.71-33.14-21.02-7.09-8.16-12.08-17.51-15.98-27.51-2.31-5.91-6.02-10.78-11.2-14.54-4.77-3.47-10-6.07-15.37-8.42-3.54-1.55-3.59-1.53-2.7-5.42.78-3.43,1.23-6.92,1.23-10.4,0-13.09-3.76-25.14-10.68-36.21-.38-.61-.67-1.48-1.81-1.37-.33.65-.69,1.34-1.03,2.04-3.34,6.75-7.84,12.6-13.64,17.41-4.51,3.75-8.83,7.72-12.63,12.18-6.5,7.63-12.18,15.75-14.83,25.62Z"/>
  <path class="cls-3" d="m34.13,76.62c2.65-9.87,8.34-17.99,14.83-25.62,3.8-4.47,8.12-8.43,12.63-12.18,5.8-4.82,10.3-10.66,13.64-17.41.35-.7.7-1.39,1.03-2.04,1.14-.12,1.43.76,1.81,1.37,6.92,11.08,10.68,23.12,10.68,36.21,0,3.48-.45,6.97-1.23,10.4-.88,3.9-.83,3.87,2.7,5.42,5.37,2.35,10.6,4.95,15.37,8.42,5.17,3.77,8.89,8.63,11.2,14.54,3.91,10.01,8.9,19.36,15.98,27.51,8.96,10.31,20.02,17.28,33.14,21.02-1.31.02-2.63.18-3.92.03-10.07-1.23-20.11-2.65-30.07-4.63-19.99-3.98-39.31-9.85-57.31-19.64-8.15-4.44-15.8-9.62-22.35-16.17-7.46-7.45-13.39-16.02-16.49-26.27-.33-1.09-.55-1.6-1.66-.96Z"/>
  <path class="cls-1" d="m34.13,76.62c1.12-.64,1.34-.13,1.66.96,3.1,10.25,9.03,18.82,16.49,26.27,6.55,6.54,14.2,11.73,22.35,16.17,18,9.8,37.31,15.67,57.31,19.64,9.96,1.98,20,3.41,30.07,4.63,1.29.16,2.61,0,3.92-.03.76.1,1.53.2,2.39.31-.13.33-.16.64-.33.76-12.79,9.03-26.21,16.72-42.02,19.07-19.57,2.91-37.88-1.05-54.98-10.69-14.81-8.36-26.51-19.87-33.89-35.38-6.17-12.96-7.38-26.42-3.58-40.29.14-.49.4-.95.6-1.43Z"/>
</svg>
